<?xml version="1.0" standalone="no"?>
<!DOCTYPE svg PUBLIC "-//W3C//DTD SVG 20010904//EN"
 "http://www.w3.org/TR/2001/REC-SVG-20010904/DTD/svg10.dtd">
<svg version="1.0" xmlns="http://www.w3.org/2000/svg"
 width="1344.000000pt" height="642.000000pt" viewBox="0 0 1344.000000 642.000000"
 preserveAspectRatio="xMidYMid meet">

<g transform="translate(0.000000,642.000000) scale(0.100000,-0.100000)"
fill="#000000" stroke="none">
<path d="M0 3210 l0 -3210 6720 0 6720 0 0 3210 0 3210 -6720 0 -6720 0 0
-3210z m7226 1355 c74 -22 117 -73 133 -160 30 -160 -94 -289 -247 -254 -97
21 -155 98 -156 204 0 108 61 193 156 215 49 12 60 11 114 -5z m-1486 -205 l0
-210 -60 0 -60 0 0 210 0 210 60 0 60 0 0 -210z m530 188 c71 -31 100 -84 100
-184 0 -76 -23 -130 -73 -168 -43 -33 -102 -45 -214 -46 l-93 0 0 211 0 212
123 -5 c77 -3 135 -11 157 -20z m450 -188 l0 -210 -55 0 -55 0 0 210 0 210 55
0 55 0 0 -210z m1200 160 l0 -50 -60 0 -60 0 0 -160 0 -160 -55 0 -55 0 0 160
0 160 -60 0 -60 0 0 50 0 50 175 0 175 0 0 -50z m-2022 -276 c33 -23 27 -73
-10 -94 -25 -13 -31 -13 -55 0 -38 21 -44 71 -11 94 12 9 29 16 38 16 9 0 26
-7 38 -16z m620 0 c33 -23 27 -73 -10 -94 -25 -13 -31 -13 -55 0 -38 21 -44
71 -11 94 12 9 29 16 38 16 9 0 26 -7 38 -16z m370 0 c33 -23 27 -73 -10 -94
-25 -13 -31 -13 -55 0 -38 21 -44 71 -11 94 12 9 29 16 38 16 9 0 26 -7 38
-16z m630 -7 c7 -6 12 -24 10 -41 -4 -42 -45 -63 -85 -44 -23 11 -28 20 -28
48 0 27 6 37 25 47 25 13 54 9 78 -10z m-1853 -315 c-5 -25 -3 -29 17 -28 18
1 24 -5 26 -29 4 -33 -18 -55 -56 -55 -17 0 -22 4 -18 18 2 9 7 33 11 52 9 49
16 70 21 70 3 0 3 -13 -1 -28z m565 -46 c-7 -36 -16 -63 -21 -61 -4 3 -3 19 3
36 12 35 4 48 -20 33 -22 -14 -28 -54 -10 -65 10 -7 9 -9 -4 -9 -9 0 -20 9
-23 20 -9 30 20 70 50 70 20 0 25 5 25 27 0 14 3 24 6 20 4 -3 1 -36 -6 -71z
m855 12 c-10 -48 -11 -65 -2 -70 8 -5 6 -8 -5 -8 -10 0 -18 6 -18 13 0 29 23
127 30 127 4 0 2 -28 -5 -62z m533 32 c-4 -26 -2 -29 18 -24 12 3 25 1 28 -5
9 -13 -3 -81 -14 -81 -4 0 -4 16 0 35 5 22 4 37 -3 42 -13 8 -47 -33 -47 -58
0 -10 -4 -19 -10 -19 -5 0 -8 6 -5 13 2 6 9 38 15 70 12 59 26 80 18 27z m396
1 c-6 -26 -4 -28 20 -24 24 5 26 3 26 -28 0 -19 -5 -41 -11 -49 -7 -11 -8 -3
-4 28 5 33 4 42 -8 42 -19 0 -33 -18 -41 -54 -12 -50 -17 -21 -6 35 14 65 18
79 24 79 3 0 3 -13 0 -29z m151 -33 c-10 -48 -11 -65 -2 -70 8 -5 6 -8 -5 -8
-10 0 -18 6 -18 13 0 29 23 127 30 127 4 0 2 -28 -5 -62z m276 -9 c-6 -28 -9
-55 -5 -60 3 -5 0 -9 -5 -9 -6 0 -11 9 -11 20 0 32 23 126 27 113 3 -7 0 -36
-6 -64z m-3482 19 c-17 -81 -20 -90 -25 -85 -8 7 17 127 26 127 4 0 4 -19 -1
-42z m165 26 c39 -38 -4 -114 -64 -114 -34 0 -35 5 -18 79 10 46 14 51 39 51
15 0 35 -7 43 -16z m256 -4 c-6 -11 -13 -20 -16 -20 -2 0 0 9 6 20 6 11 13 20
16 20 2 0 0 -9 -6 -20z m222 3 c24 -21 23 -54 -3 -87 -23 -30 -54 -33 -81 -9
-24 21 -23 54 3 87 23 30 54 33 81 9z m456 5 c19 -19 14 -76 -8 -98 -38 -38
-90 -18 -90 35 0 58 63 98 98 63z m492 -64 c-7 -30 -14 -53 -17 -50 -3 3 0 34
7 68 8 34 15 57 18 50 2 -6 -2 -37 -8 -68z m798 64 c19 -19 14 -76 -8 -98 -38
-38 -90 -18 -90 35 0 58 63 98 98 63z m225 5 c-17 -3 -24 -16 -36 -66 -8 -34
-15 -51 -16 -37 0 14 3 42 8 62 8 33 6 37 -13 41 -11 2 2 4 29 4 28 0 40 -2
28 -4z m-2140 -33 c6 0 3 -6 -7 -13 -14 -10 -17 -22 -14 -46 3 -20 1 -30 -6
-28 -12 4 -15 87 -3 87 4 0 8 8 8 18 1 16 2 16 6 0 2 -10 9 -18 16 -18z m1361
-2 c7 -5 5 -8 -5 -8 -20 0 -32 -61 -15 -72 7 -5 5 -8 -6 -8 -14 0 -17 8 -15
45 1 25 5 45 10 45 4 0 7 8 8 18 0 13 2 14 6 2 3 -8 11 -18 17 -22z m242 17
c-3 -8 0 -15 7 -15 9 0 9 -2 0 -8 -19 -12 -28 -63 -12 -73 11 -7 10 -9 -5 -9
-15 0 -18 6 -14 40 2 22 0 40 -4 40 -4 0 0 9 9 20 21 24 27 26 19 5z m1080 0
c-3 -8 0 -15 7 -15 9 0 9 -2 0 -8 -19 -12 -28 -63 -12 -73 11 -7 10 -9 -5 -9
-15 0 -18 6 -14 40 2 22 0 40 -4 40 -4 0 0 9 9 20 21 24 27 26 19 5z m-2888
-48 c4 -34 -14 -59 -41 -55 -33 5 -43 32 -23 63 23 36 60 31 64 -8z m52 0 c-4
-12 -11 -31 -14 -41 -4 -10 -9 -16 -12 -13 -9 9 16 88 26 82 5 -3 6 -15 0 -28z
m50 1 c0 -18 -5 -40 -11 -48 -7 -11 -8 -4 -3 24 5 27 3 41 -7 47 -11 7 -10 9
4 9 13 0 17 -8 17 -32z m475 22 c10 -16 -15 -40 -41 -40 -30 0 -21 -29 10 -31
17 -1 18 -2 3 -6 -22 -6 -47 13 -47 35 0 36 59 69 75 42z m37 -27 l3 -38 24
38 c13 21 26 36 28 33 8 -7 -70 -119 -86 -124 -7 -3 -4 5 8 17 21 21 21 31 4
94 -2 9 0 17 6 17 5 0 11 -17 13 -37z m289 21 c-11 -8 -21 -23 -21 -32 0 -9
-5 -24 -11 -32 -7 -11 -8 -4 -3 25 8 51 8 50 35 52 l22 2 -22 -15z m194 6 c10
-16 -15 -40 -41 -40 -30 0 -21 -29 10 -31 17 -1 18 -2 3 -6 -22 -6 -47 13 -47
35 0 36 59 69 75 42z m31 -46 c-15 -41 -20 -28 -10 25 4 19 10 29 16 23 5 -5
2 -25 -6 -48z m85 45 c-23 -9 -23 -10 -6 -29 10 -11 15 -26 12 -35 -7 -16 -47
-21 -47 -6 0 5 9 7 20 4 24 -6 26 4 4 28 -21 23 -11 49 18 48 l23 0 -24 -10z
m210 -2 c3 -28 -3 -63 -12 -72 -7 -6 -8 5 -3 33 4 27 3 42 -4 42 -17 0 -42
-30 -42 -50 0 -10 -5 -22 -10 -25 -10 -6 -8 12 6 65 5 18 64 25 65 7z m60 2
c-23 -9 -23 -10 -6 -29 10 -11 15 -26 12 -35 -7 -16 -47 -21 -47 -6 0 5 9 7
20 4 24 -6 26 4 4 28 -21 23 -11 49 18 48 l23 0 -24 -10z m168 -26 c-5 -21 -9
-42 -9 -46 0 -5 -4 -6 -9 -2 -6 3 -6 17 1 36 12 35 4 48 -20 33 -22 -14 -28
-54 -10 -65 10 -7 9 -9 -4 -9 -25 0 -32 37 -14 65 11 17 26 25 45 25 28 0 29
-1 20 -37z m51 4 c-4 -12 -11 -31 -14 -41 -4 -10 -9 -16 -12 -13 -9 9 16 88
26 82 5 -3 6 -15 0 -28z m50 1 c0 -18 -5 -40 -11 -48 -7 -11 -8 -4 -3 24 5 27
3 41 -7 47 -11 7 -10 9 4 9 13 0 17 -8 17 -32z m151 -11 c0 -30 1 -31 14 -12
36 51 44 56 20 10 -31 -55 -54 -85 -67 -85 -4 0 1 9 11 19 16 16 18 26 10 58
-11 49 -11 55 1 48 6 -3 10 -21 11 -38z m265 -13 c-15 -41 -20 -28 -10 25 4
19 10 29 16 23 5 -5 2 -25 -6 -48z m365 40 c19 -23 -8 -69 -41 -69 -20 0 -26
6 -28 28 -6 50 39 77 69 41z m43 -20 c-5 -26 -3 -39 7 -45 11 -7 10 -9 -3 -9
-10 0 -18 6 -19 13 -2 20 3 61 8 70 10 17 13 5 7 -29z m63 19 c-3 -10 -8 -31
-11 -46 -4 -15 -11 -25 -16 -22 -5 3 -6 15 0 28 4 12 11 30 14 40 3 9 8 17 11
17 4 0 4 -8 2 -17z m89 -32 c-6 -26 -17 -55 -25 -65 -14 -17 -46 -22 -55 -7
-3 4 5 6 18 4 24 -5 35 4 41 34 2 10 6 30 10 46 5 20 3 27 -7 27 -33 0 -54
-62 -25 -73 7 -3 6 -6 -5 -6 -25 -1 -32 36 -14 64 11 17 26 25 45 25 l28 0
-11 -49z m302 26 c3 -12 -5 -19 -28 -23 -34 -7 -35 -29 -1 -28 13 0 18 -3 12
-9 -5 -5 -17 -7 -27 -5 -23 4 -31 52 -13 74 16 20 53 14 57 -9z m53 12 c-23
-9 -23 -10 -6 -29 10 -11 15 -26 12 -35 -7 -16 -47 -21 -47 -6 0 5 9 7 20 4
24 -6 26 4 4 28 -21 23 -11 49 18 48 l23 0 -24 -10z m70 0 c-23 -9 -23 -10 -6
-29 10 -11 15 -26 12 -35 -7 -16 -47 -21 -47 -6 0 5 9 7 20 4 24 -6 26 4 4 28
-21 23 -11 49 18 48 l23 0 -24 -10z m104 -96 c-9 -13 -23 -23 -33 -22 -14 0
-14 2 -2 6 25 10 31 26 26 78 l-5 50 14 -44 c13 -40 13 -47 0 -68z m56 90
c-12 -23 -43 -61 -39 -48 10 29 32 65 40 65 5 0 4 -8 -1 -17z m9 -63 c0 -5 -4
-10 -10 -10 -5 0 -10 5 -10 10 0 6 5 10 10 10 6 0 10 -4 10 -10z m700 -698 c0
-4 -9 -8 -20 -8 -11 0 -20 4 -20 8 0 4 9 8 20 8 11 0 20 -4 20 -8z m-5687 -29
c-27 -5 -31 -32 -5 -34 16 -1 16 -2 0 -6 -26 -7 -22 -41 5 -46 19 -4 18 -4 -5
-6 -27 -1 -28 1 -28 49 0 48 1 50 28 49 23 -2 24 -2 5 -6z m917 -42 c0 -46 -1
-48 -27 -47 -24 1 -28 5 -28 31 0 23 5 31 23 33 12 2 22 10 22 18 0 8 2 14 5
14 3 0 5 -22 5 -49z m-781 11 c-12 -5 -11 -49 1 -55 6 -3 5 -4 -2 -3 -14 3
-27 52 -20 73 3 9 7 9 17 0 7 -7 9 -13 4 -15z m1920 0 c-12 -5 -11 -49 1 -55
6 -3 5 -4 -2 -3 -14 3 -27 52 -20 73 3 9 7 9 17 0 7 -7 9 -13 4 -15z m3568
-14 c-3 -7 -5 -2 -5 12 0 14 2 19 5 13 2 -7 2 -19 0 -25z m90 0 c-8 -30 -45
-54 -60 -39 -8 8 -5 11 9 11 25 0 44 18 44 44 0 10 3 17 6 13 4 -3 4 -16 1
-29z m-5670 -30 c-2 -13 -4 -5 -4 17 -1 22 1 32 4 23 2 -10 2 -28 0 -40z m42
15 c-2 -35 -2 -35 -6 -8 -3 16 -10 33 -16 37 -8 5 -6 8 6 8 13 0 17 -8 16 -37z
m129 14 c3 -13 -3 -17 -24 -17 -30 0 -23 -15 11 -23 15 -4 14 -5 -7 -6 -31 -1
-47 31 -27 55 16 19 43 14 47 -9z m45 15 c-6 -4 -13 -21 -16 -37 -4 -27 -4
-27 -6 8 -1 29 3 37 17 37 11 0 13 -3 5 -8z m90 -2 c-13 -5 -23 -16 -23 -25 0
-9 10 -20 23 -25 17 -8 18 -9 3 -7 -28 3 -43 32 -27 51 8 9 21 16 30 15 11 0
9 -3 -6 -9z m92 -25 c0 -25 -4 -30 -25 -30 -16 0 -26 6 -28 18 -6 30 6 49 30
45 18 -2 23 -9 23 -33z m122 -5 c1 -23 -1 -27 -4 -10 -7 35 -22 48 -33 30 -9
-13 -11 -13 -20 0 -11 18 -27 5 -33 -30 -3 -19 -5 -16 -6 11 l-1 36 48 -1 c47
-1 47 -1 49 -36z m120 0 c1 -23 -1 -27 -4 -10 -7 35 -22 48 -33 30 -9 -13 -11
-13 -20 0 -11 18 -27 5 -33 -30 -3 -19 -5 -16 -6 11 l-1 36 48 -1 c47 -1 47
-1 49 -36z m71 2 c3 -29 1 -32 -22 -32 -31 0 -36 29 -6 37 25 7 26 20 3 27
-14 4 -14 4 2 3 15 -2 21 -11 23 -35z m78 -2 l2 -35 -5 33 c-2 18 -10 32 -18
32 -8 0 -15 -14 -18 -32 -4 -32 -4 -32 -5 5 -2 34 0 38 21 35 18 -2 22 -10 23
-38z m208 18 c8 -14 7 -21 -6 -34 -30 -30 -75 9 -48 42 16 18 39 15 54 -8z
m49 14 c-6 -4 -13 -21 -16 -37 -4 -27 -4 -27 -6 8 -1 29 3 37 17 37 11 0 13
-3 5 -8z m85 -50 c9 2 20 17 23 33 7 30 7 30 8 -6 1 -33 -1 -36 -26 -35 -24 1
-28 6 -30 34 l-3 32 6 -31 c4 -21 10 -29 22 -27z m80 51 c-22 -6 -23 -12 -1
-28 19 -14 9 -36 -15 -34 -15 1 -15 2 1 6 21 6 22 12 0 28 -19 14 -9 36 15 34
15 -1 15 -2 0 -6z m82 3 c0 -2 3 -11 6 -20 5 -12 0 -16 -20 -16 -32 0 -34 -17
-3 -23 19 -5 19 -5 -3 -4 -41 3 -41 67 0 67 11 0 20 -2 20 -4z m68 -21 c-3 -3
-9 2 -12 12 -6 14 -5 15 5 6 7 -7 10 -15 7 -18z m32 -15 c-11 -27 -30 -33 -30
-9 0 6 4 7 10 4 5 -3 12 6 16 20 3 14 9 24 12 21 2 -3 -1 -19 -8 -36z m85 5
c0 -25 -4 -30 -25 -30 -16 0 -26 6 -28 18 -6 30 6 49 30 45 18 -2 23 -9 23
-33z m32 -17 c-2 -13 -4 -5 -4 17 -1 22 1 32 4 23 2 -10 2 -28 0 -40z m56 42
c-13 -5 -23 -16 -23 -25 0 -9 10 -20 23 -25 17 -8 18 -9 3 -7 -28 3 -43 32
-27 51 8 9 21 16 30 15 11 0 9 -3 -6 -9z m87 6 c0 -2 3 -11 6 -20 5 -12 0 -16
-20 -16 -32 0 -34 -17 -3 -23 19 -5 19 -5 -3 -4 -41 3 -41 67 0 67 11 0 20 -2
20 -4z m67 -48 c-2 -13 -4 -5 -4 17 -1 22 1 32 4 23 2 -10 2 -28 0 -40z m40 0
c-2 -13 -4 -5 -4 17 -1 22 1 32 4 23 2 -10 2 -28 0 -40z m42 15 c-2 -35 -2
-35 -6 -8 -3 16 -10 33 -16 37 -8 5 -6 8 6 8 13 0 17 -8 16 -37z m57 -23 c24
0 30 31 9 46 -16 12 -16 14 -3 14 9 0 20 -9 23 -20 7 -23 -10 -50 -30 -50 -8
0 -16 -8 -18 -17 -3 -10 -4 7 -4 37 0 31 2 41 4 23 3 -21 10 -33 19 -33z m77
-2 c8 -5 6 -8 -5 -8 -14 0 -18 8 -17 38 2 34 2 34 6 7 3 -16 10 -33 16 -37z
m24 10 c-2 -13 -4 -5 -4 17 -1 22 1 32 4 23 2 -10 2 -28 0 -40z m3683 30 c0
-4 -9 -8 -20 -8 -11 0 -20 4 -20 8 0 4 9 8 20 8 11 0 20 -4 20 -8z m-5900
-652 l0 -73 -37 2 c-52 3 -50 2 -56 27 -9 34 19 71 49 65 21 -4 24 0 24 24 0
16 5 29 10 29 6 0 10 -31 10 -74z m-810 50 c0 -9 -8 -12 -25 -8 -33 6 -55 -14
-55 -48 0 -35 22 -54 55 -47 16 3 24 0 22 -7 -2 -6 -17 -12 -33 -14 -61 -6
-93 80 -45 120 27 21 81 25 81 4z m920 -46 c0 -57 1 -60 25 -60 14 0 25 -4 25
-10 0 -5 -16 -10 -35 -10 l-35 0 0 70 c0 40 4 70 10 70 6 0 10 -27 10 -60z
m-810 -1 c17 -31 4 -68 -27 -75 -34 -9 -57 6 -61 42 -6 50 65 77 88 33z m105
10 c3 -5 14 -3 24 3 33 20 51 3 51 -47 0 -25 -4 -45 -10 -45 -5 0 -10 18 -10
41 0 33 -3 40 -17 37 -13 -2 -19 -14 -21 -41 -2 -20 -7 -37 -12 -37 -5 0 -10
17 -12 37 -2 27 -8 39 -20 41 -15 3 -18 -4 -18 -37 0 -30 -4 -41 -15 -41 -11
0 -15 12 -15 49 l0 49 35 0 c19 0 38 -4 40 -9z m180 0 c3 -5 14 -3 25 3 28 18
50 -6 50 -53 0 -22 -4 -39 -10 -39 -5 0 -10 16 -10 35 0 23 -6 38 -16 42 -20
7 -34 -13 -34 -49 0 -16 -4 -28 -10 -28 -5 0 -10 18 -10 41 0 33 -3 40 -17 37
-13 -2 -19 -14 -21 -41 -5 -54 -22 -46 -22 11 l0 48 35 1 c19 1 37 -3 40 -8z
m173 -41 l3 -46 -38 1 c-50 3 -59 33 -14 50 38 14 40 27 5 27 -15 0 -23 4 -19
11 4 5 19 9 33 7 24 -3 27 -8 30 -50z m120 0 c2 -29 -1 -48 -7 -48 -6 0 -11
18 -11 40 0 33 -3 40 -20 40 -17 0 -20 -7 -20 -40 0 -29 -4 -40 -15 -40 -11 0
-15 12 -15 49 l0 50 43 -2 42 -2 3 -47z m386 36 c32 -31 8 -84 -38 -84 -30 0
-46 18 -46 52 0 43 53 64 84 32z m126 -49 c0 -68 -10 -85 -52 -85 -36 0 -37
18 -1 22 16 2 29 10 31 20 2 12 -2 15 -17 11 -28 -7 -51 14 -51 46 0 36 17 51
57 49 l33 -1 0 -62z m-910 -447 c48 -25 90 -89 90 -138 0 -49 -42 -113 -90
-137 -24 -13 -56 -23 -70 -23 -14 0 -46 10 -70 23 -48 24 -90 88 -90 137 0 49
42 113 90 138 24 12 56 22 70 22 14 0 46 -10 70 -22z m387 -185 c-2 -16 -4 -3
-4 27 0 30 2 43 4 28 2 -16 2 -40 0 -55z m97 61 c33 -32 5 -84 -46 -84 -27 0
-28 2 -28 50 0 49 1 50 29 50 16 0 37 -7 45 -16z m46 -34 c0 -27 -4 -50 -10
-50 -5 0 -10 23 -10 50 0 28 5 50 10 50 6 0 10 -22 10 -50z m102 25 c25 -55
-34 -101 -76 -59 -33 32 -8 84 40 84 16 0 28 -8 36 -25z m66 18 c-14 -3 -18
-16 -20 -51 l-2 -47 -3 47 c-3 33 -9 48 -21 51 -9 3 1 5 23 5 22 0 32 -2 23
-5z m842 -43 c0 -27 -4 -50 -10 -50 -5 0 -10 23 -10 50 0 28 5 50 10 50 6 0
10 -22 10 -50z m250 0 c0 -46 -2 -50 -24 -50 -13 0 -29 7 -36 15 -14 16 -60
21 -60 6 0 -5 10 -11 23 -13 12 -3 -9 -5 -46 -6 l-68 -1 21 27 c20 25 20 27 3
33 -14 6 -12 8 10 8 32 1 32 -1 11 -34 -16 -24 -15 -25 4 -25 15 0 22 7 24 27
4 33 35 44 54 19 10 -14 13 -15 24 -1 7 8 21 15 31 15 11 0 19 7 19 15 0 8 2
15 5 15 3 0 5 -22 5 -50z m110 30 c0 -13 7 -20 20 -20 13 0 20 7 20 20 0 11 5
20 10 20 6 0 10 -22 10 -50 0 -27 -4 -50 -10 -50 -5 0 -10 11 -10 25 0 18 -5
25 -20 25 -15 0 -20 -7 -20 -25 0 -14 -4 -25 -10 -25 -5 0 -10 23 -10 50 0 28
5 50 10 50 6 0 10 -9 10 -20z m567 -57 c-2 -16 -4 -3 -4 27 0 30 2 43 4 28 2
-16 2 -40 0 -55z m893 26 l0 -50 -32 3 c-29 3 -33 6 -33 33 0 23 5 31 23 33
12 2 22 10 22 18 0 8 5 14 10 14 6 0 10 -23 10 -51z m205 41 c3 -6 -3 -22 -14
-36 -15 -19 -21 -22 -21 -11 0 9 5 19 10 22 18 11 11 27 -10 22 -11 -3 -18 -1
-14 4 7 12 41 11 49 -1z m-2596 -28 c-14 -5 -11 -50 4 -55 7 -4 6 -6 -4 -6
-12 -1 -18 9 -21 33 -5 46 0 59 17 43 7 -7 9 -13 4 -15z m430 0 c-14 -5 -11
-50 4 -55 7 -3 5 -6 -5 -6 -13 -1 -18 7 -18 29 0 17 -5 30 -10 30 -7 0 -6 5 2
13 9 10 16 11 24 3 7 -6 8 -12 3 -14z m1440 0 c-14 -5 -11 -50 4 -55 7 -3 5
-6 -5 -6 -13 -1 -18 7 -18 28 0 24 -4 29 -25 29 -29 0 -31 -6 -8 -23 9 -7 13
-17 9 -23 -9 -14 -46 -16 -46 -2 0 5 7 7 15 4 20 -8 19 6 -2 21 -22 16 -8 35
28 35 16 0 29 5 29 10 0 6 6 5 14 -2 8 -7 10 -14 5 -16z m352 21 c5 -50 2 -82
-6 -80 -11 4 -23 56 -17 75 4 13 22 17 23 5z m-2391 -23 c0 -5 -7 -7 -15 -4
-8 4 -15 2 -15 -4 0 -5 7 -12 15 -16 25 -9 18 -36 -10 -36 -14 0 -25 4 -25 9
0 5 9 7 20 4 11 -3 20 0 20 6 0 6 -6 11 -14 11 -18 0 -29 16 -21 30 8 13 45
13 45 0z m35 -17 l7 -28 10 28 c5 15 14 27 18 27 5 0 0 -22 -12 -50 -13 -31
-27 -50 -37 -50 -13 0 -13 2 -2 9 13 8 12 32 -5 75 -3 9 -2 16 4 16 5 0 13
-12 17 -27z m95 17 c0 -5 -7 -7 -15 -4 -20 8 -19 -6 2 -21 9 -7 13 -17 9 -23
-9 -14 -46 -16 -46 -2 0 5 7 7 15 4 20 -8 19 6 -2 21 -9 7 -13 17 -9 23 9 14
46 16 46 2z m118 -12 c3 -14 -3 -18 -24 -18 -30 0 -23 -14 11 -23 12 -3 8 -5
-10 -4 -31 2 -43 23 -31 53 8 21 50 14 54 -8z m114 8 c11 -16 10 -56 -2 -56
-5 0 -10 14 -10 31 0 39 -23 34 -29 -7 l-4 -29 -6 29 c-8 38 -25 40 -29 4 -5
-40 -22 -34 -22 7 l0 34 48 -1 c26 0 50 -6 54 -12z m78 -21 c0 -19 -4 -35 -10
-35 -5 0 -10 16 -10 35 0 19 5 35 10 35 6 0 10 -16 10 -35z m78 -2 c2 -19 -1
-33 -7 -33 -6 0 -11 14 -11 31 0 39 -22 34 -31 -7 -6 -27 -7 -26 -8 9 -1 36 1
38 27 35 22 -2 28 -8 30 -35z m29 -15 c-2 -13 -4 -5 -4 17 -1 22 1 32 4 23 2
-10 2 -28 0 -40z m93 17 c0 -19 -4 -35 -10 -35 -5 0 -10 16 -10 35 0 19 5 35
10 35 6 0 10 -16 10 -35z m68 -2 c3 -31 1 -33 -27 -33 -36 0 -44 28 -11 37 11
3 20 10 20 15 0 5 -10 6 -21 3 -15 -5 -19 -4 -14 5 4 6 17 10 28 8 17 -2 23
-11 25 -35z m59 -15 c-2 -13 -4 -5 -4 17 -1 22 1 32 4 23 2 -10 2 -28 0 -40z
m474 36 c9 -11 10 -20 2 -32 -15 -24 -44 -27 -59 -7 -28 38 27 75 57 39z m35
-6 l7 -23 8 23 c10 25 29 21 29 -6 1 -13 5 -11 16 8 l15 25 -5 -25 c-3 -14 -6
-31 -6 -37 0 -21 -20 -15 -29 9 l-8 23 -7 -23 c-10 -31 -21 -27 -33 13 -6 19
-7 35 -3 35 5 0 12 -10 16 -22z m174 13 c0 -5 -8 -8 -17 -7 -12 1 -18 -6 -18
-19 0 -13 6 -20 18 -19 9 1 17 -2 17 -7 0 -16 -39 -9 -49 8 -12 23 4 53 29 53
11 0 20 -4 20 -9z m68 -28 c3 -31 1 -33 -27 -33 -36 0 -44 28 -11 37 11 3 20
10 20 15 0 6 -7 8 -15 4 -8 -3 -15 -1 -15 5 0 6 10 9 23 7 17 -2 23 -11 25
-35z m80 0 c2 -19 -1 -33 -7 -33 -6 0 -11 14 -11 31 0 39 -22 34 -31 -7 -6
-27 -7 -26 -8 9 -1 36 1 38 27 35 22 -2 28 -8 30 -35z m182 1 c0 -32 -2 -35
-25 -32 -32 4 -35 20 -5 34 13 7 18 14 11 18 -6 4 -15 4 -21 1 -5 -3 -10 -1
-10 4 0 6 11 11 25 11 22 0 25 -4 25 -36z m60 26 c0 -5 -7 -7 -15 -4 -31 12
-13 -12 21 -29 37 -18 64 -14 31 4 -23 14 -22 39 3 39 11 0 20 -4 20 -10 0 -5
-7 -7 -15 -4 -8 4 -15 2 -15 -4 0 -5 9 -12 21 -15 12 -3 19 -12 17 -19 -6 -16
-105 -21 -114 -6 -4 6 1 8 15 3 24 -7 29 10 6 19 -22 8 -18 36 5 36 11 0 20
-4 20 -10z m100 -25 c0 -19 -4 -35 -10 -35 -5 0 -10 16 -10 35 0 19 5 35 10
35 6 0 10 -16 10 -35z m177 8 l10 -28 6 28 c4 15 12 27 17 27 18 0 -27 -95
-46 -98 -15 -2 -16 -1 -5 6 13 10 12 37 -4 75 -4 10 -3 17 3 17 6 0 14 -12 19
-27z m112 8 c13 -24 -8 -55 -34 -50 -28 6 -42 34 -26 53 18 22 48 20 60 -3z
m49 -39 c8 -2 12 7 12 27 0 17 5 31 10 31 6 0 10 -16 10 -36 0 -33 -2 -35 -27
-32 -24 3 -28 8 -30 38 -1 33 -1 33 5 6 4 -16 13 -31 20 -34z m197 23 c0 -27
-3 -30 -30 -30 -21 0 -31 5 -33 18 -6 33 6 49 35 45 24 -3 28 -8 28 -33z m155
-1 c0 -33 -2 -35 -27 -32 -35 4 -37 30 -3 38 17 4 21 8 12 14 -6 4 -16 4 -22
1 -5 -3 -10 -1 -10 4 0 6 11 11 25 11 22 0 25 -4 25 -36z m37 9 l10 -28 6 28
c4 15 12 27 17 27 18 0 -27 -95 -46 -98 -15 -2 -16 -1 -5 6 13 10 12 37 -4 75
-4 10 -3 17 3 17 6 0 14 -12 19 -27z m83 -33 c0 -5 -4 -10 -10 -10 -5 0 -10 5
-10 10 0 6 5 10 10 10 6 0 10 -4 10 -10z m-3142 -187 c-1 -44 -2 -45 -5 -10
-2 20 -9 37 -14 37 -6 0 -7 5 -4 10 14 23 25 7 23 -37z m77 2 c0 -30 -4 -41
-17 -43 -26 -5 -44 39 -28 67 19 36 45 22 45 -24z m86 -34 c-3 -10 -6 -11 -9
-3 -2 7 -12 12 -23 12 -24 0 -24 4 4 41 l22 31 5 -34 c4 -18 4 -40 1 -47z m64
54 c1 -11 4 -25 7 -30 10 -17 -7 -37 -28 -33 -18 3 -22 26 -15 81 2 18 36 1
36 -18z m110 8 c4 -12 -1 -24 -14 -35 -12 -9 -21 -21 -21 -27 0 -6 -4 -11 -10
-11 -5 0 -10 20 -10 45 0 41 2 45 24 45 13 0 27 -8 31 -17z m46 -20 l13 -38
14 38 c20 51 32 47 30 -10 -1 -41 -2 -43 -5 -13 l-5 35 -18 -35 -19 -35 -13
35 -13 35 -6 -35 c-6 -33 -6 -33 -8 13 -1 56 13 61 30 10z"/>
<path d="M7101 4444 c-16 -20 -21 -41 -21 -84 0 -76 25 -110 80 -110 55 0 80
34 80 110 0 76 -25 110 -80 110 -30 0 -43 -6 -59 -26z"/>
<path d="M6110 4360 l0 -110 39 0 c62 0 93 33 99 103 4 52 2 58 -26 87 -24 24
-39 30 -71 30 l-41 0 0 -110z"/>
<path d="M5660 3871 c-14 -27 -13 -51 3 -51 20 0 37 22 37 47 0 28 -25 31 -40
4z"/>
<path d="M5056 3893 c-4 -21 -9 -46 -12 -55 -6 -20 25 -25 56 -8 42 22 31 100
-14 100 -20 0 -25 -7 -30 -37z"/>
<path d="M5536 3914 c-25 -25 -18 -88 10 -92 33 -5 56 25 52 67 -2 28 -8 37
-24 39 -12 2 -29 -4 -38 -14z"/>
<path d="M5985 3906 c-20 -30 -16 -65 8 -80 22 -14 49 2 62 38 19 55 -39 90
-70 42z"/>
<path d="M7275 3906 c-20 -30 -16 -65 8 -80 22 -14 49 2 62 38 19 55 -39 90
-70 42z"/>
<path d="M5177 3884 c-13 -13 -8 -64 7 -64 19 0 38 26 34 47 -3 18 -29 29 -41
17z"/>
<path d="M5755 3879 c-4 -6 -4 -13 -1 -16 8 -8 36 5 36 17 0 13 -27 13 -35 -1z"/>
<path d="M6275 3879 c-4 -6 -4 -13 -1 -16 8 -8 36 5 36 17 0 13 -27 13 -35 -1z"/>
<path d="M7710 3875 c-17 -20 -8 -50 15 -50 15 0 21 8 23 33 4 35 -16 44 -38
17z"/>
<path d="M8209 3874 c-11 -14 -10 -15 11 -12 13 1 25 9 28 16 5 17 -23 15 -39
-4z"/>
<path d="M4430 3035 c0 -20 4 -26 18 -23 9 2 17 12 17 23 0 11 -8 21 -17 23
-14 3 -18 -3 -18 -23z"/>
<path d="M3735 3050 c-3 -5 3 -10 14 -10 12 0 21 5 21 10 0 6 -6 10 -14 10 -8
0 -18 -4 -21 -10z"/>
<path d="M3960 3035 c0 -18 5 -25 20 -25 15 0 20 7 20 25 0 18 -5 25 -20 25
-15 0 -20 -7 -20 -25z"/>
<path d="M4280 3020 c0 -5 7 -10 15 -10 8 0 15 5 15 10 0 6 -7 10 -15 10 -8 0
-15 -4 -15 -10z"/>
<path d="M4554 3045 c-4 -9 -2 -21 4 -27 15 -15 44 -1 40 19 -4 23 -36 29 -44
8z"/>
<path d="M4860 3050 c0 -5 9 -10 21 -10 11 0 17 5 14 10 -3 6 -13 10 -21 10
-8 0 -14 -4 -14 -10z"/>
<path d="M5040 3035 c0 -18 5 -25 20 -25 15 0 20 7 20 25 0 18 -5 25 -20 25
-15 0 -20 -7 -20 -25z"/>
<path d="M5220 3050 c0 -5 9 -10 21 -10 11 0 17 5 14 10 -3 6 -13 10 -21 10
-8 0 -14 -4 -14 -10z"/>
<path d="M3278 2382 c-7 -27 5 -45 28 -40 28 5 26 52 -2 56 -14 2 -23 -3 -26
-16z"/>
<path d="M2584 2386 c-10 -26 4 -48 28 -44 17 2 23 10 23 28 0 18 -6 26 -23
28 -13 2 -25 -3 -28 -12z"/>
<path d="M3050 2350 c0 -5 9 -10 20 -10 11 0 20 5 20 10 0 6 -9 10 -20 10 -11
0 -20 -4 -20 -10z"/>
<path d="M3554 2385 c-9 -23 3 -45 25 -45 21 0 33 22 25 45 -4 8 -15 15 -25
15 -11 0 -22 -7 -25 -15z"/>
<path d="M3674 2385 c-9 -23 4 -47 23 -43 11 2 19 14 21 31 3 22 -1 27 -18 27
-11 0 -23 -7 -26 -15z"/>
<path d="M2738 1823 c21 -8 13 -23 -12 -23 -26 0 -35 -23 -28 -67 4 -21 10
-23 62 -23 53 0 59 2 62 23 7 44 -3 67 -28 67 -15 0 -24 6 -24 15 0 9 -9 15
-22 14 -13 0 -17 -3 -10 -6z m62 -68 c0 -34 -1 -35 -40 -35 -39 0 -40 1 -40
35 0 34 1 35 40 35 39 0 40 -1 40 -35z"/>
<path d="M2730 1755 c0 -8 5 -15 10 -15 6 0 10 7 10 15 0 8 -4 15 -10 15 -5 0
-10 -7 -10 -15z"/>
<path d="M2770 1755 c0 -8 5 -15 10 -15 6 0 10 7 10 15 0 8 -4 15 -10 15 -5 0
-10 -7 -10 -15z"/>
<path d="M3260 1750 c0 -26 5 -40 13 -40 34 0 52 62 21 74 -29 11 -34 6 -34
-34z"/>
<path d="M3401 1776 c-21 -25 -10 -61 19 -61 22 0 25 4 25 35 0 38 -23 52 -44
26z"/>
<path d="M4500 1750 c0 -5 7 -10 16 -10 8 0 12 5 9 10 -3 6 -10 10 -16 10 -5
0 -9 -4 -9 -10z"/>
<path d="M4574 1745 c-9 -23 14 -45 26 -25 5 8 8 19 7 24 -6 17 -27 18 -33 1z"/>
<path d="M6140 1735 c0 -16 6 -25 15 -25 9 0 15 9 15 25 0 16 -6 25 -15 25 -9
0 -15 -9 -15 -25z"/>
<path d="M3840 1750 c0 -5 7 -10 16 -10 8 0 12 5 9 10 -3 6 -10 10 -16 10 -5
0 -9 -4 -9 -10z"/>
<path d="M4295 1720 c-3 -5 1 -10 9 -10 9 0 16 5 16 10 0 6 -4 10 -9 10 -6 0
-13 -4 -16 -10z"/>
<path d="M4823 1744 c-8 -21 13 -42 28 -27 13 13 5 43 -11 43 -6 0 -13 -7 -17
-16z"/>
<path d="M5110 1720 c0 -5 5 -10 10 -10 6 0 10 5 10 10 0 6 -4 10 -10 10 -5 0
-10 -4 -10 -10z"/>
<path d="M5370 1720 c0 -5 4 -10 9 -10 6 0 13 5 16 10 3 6 -1 10 -9 10 -9 0
-16 -4 -16 -10z"/>
<path d="M5813 1744 c-8 -21 13 -42 28 -27 13 13 5 43 -11 43 -6 0 -13 -7 -17
-16z"/>
<path d="M6060 1735 c0 -15 6 -25 14 -25 19 0 28 14 20 34 -10 25 -34 19 -34
-9z"/>
<path d="M6220 1720 c0 -5 4 -10 9 -10 6 0 13 5 16 10 3 6 -1 10 -9 10 -9 0
-16 -4 -16 -10z"/>
<path d="M3280 1525 c0 -25 4 -35 13 -32 6 2 12 16 12 32 0 16 -6 30 -12 33
-9 2 -13 -8 -13 -33z"/>
<path d="M3376 1531 c-4 -7 -5 -15 -2 -18 9 -9 19 4 14 18 -4 11 -6 11 -12 0z"/>
<path d="M3440 1545 c0 -8 5 -15 10 -15 6 0 10 7 10 15 0 8 -4 15 -10 15 -5 0
-10 -7 -10 -15z"/>
<path d="M3437 1514 c-8 -8 1 -24 14 -24 5 0 9 7 9 15 0 15 -12 20 -23 9z"/>
<path d="M3540 1540 c0 -11 5 -20 10 -20 6 0 10 9 10 20 0 11 -4 20 -10 20 -5
0 -10 -9 -10 -20z"/>
</g>
</svg>
